<?xml version="1.0" encoding="utf-8"?>
<!-- Generator: Adobe Illustrator 26.2.1, SVG Export Plug-In . SVG Version: 6.00 Build 0)  -->
<svg version="1.1" id="Layer_1" xmlns="http://www.w3.org/2000/svg" xmlns:xlink="http://www.w3.org/1999/xlink" x="0px" y="0px"
	 viewBox="0 0 504 484.4" style="enable-background:new 0 0 504 484.4;" xml:space="preserve">
<style type="text/css">
	.st0{fill:#222222;}
</style>
<path class="st0" d="M377.4,167.4h-6.2c4.5-12.9,6.7-26.9,6.7-40.9C378.6,56.6,322,0,252,0S125.4,56.6,125.4,126.6
	c0,14.6,2.2,28,6.7,40.9H126C56.6,167.4,0,224,0,294s56.6,126.6,126.6,126.6c43.1,0,81.2-21.8,104.2-54.3l-19.6,118.2h81.8
	l-20.2-119.8c22.4,34.2,61,56.6,105.3,56.6c69.4-0.6,126-57.1,126-127.1S447.4,167.4,377.4,167.4L377.4,167.4z"/>
</svg>
