<svg id="Capa_1" enable-background="new 0 0 512 512" height="512" viewBox="0 0 512 512" width="512" xmlns="http://www.w3.org/2000/svg"><circle cx="26.696" cy="269.357" fill="#e7e7e7" r="26.696"/><path d="m26.697 277.473c-11.477 0-21.259-7.243-25.033-17.406-1.075 2.893-1.664 6.022-1.664 9.29 0 14.744 11.952 26.696 26.697 26.696 14.744 0 26.696-11.952 26.696-26.696 0-3.267-.59-6.397-1.664-9.29-3.773 10.163-13.556 17.406-25.032 17.406z" fill="#cecece"/><circle cx="485.304" cy="269.357" fill="#e7e7e7" r="26.696"/><path d="m485.303 277.473c-11.476 0-21.259-7.243-25.032-17.406-1.074 2.893-1.664 6.023-1.664 9.29 0 14.744 11.952 26.696 26.696 26.696s26.697-11.952 26.697-26.696c0-3.267-.589-6.397-1.664-9.29-3.773 10.163-13.556 17.406-25.033 17.406z" fill="#cecece"/><circle cx="255.8" cy="82.153" fill="#e7e7e7" r="26.696"/><path d="m255.8 90.269c-11.476 0-21.259-7.243-25.033-17.406-1.074 2.894-1.664 6.023-1.664 9.29 0 14.744 11.952 26.696 26.696 26.696s26.697-11.952 26.697-26.696c0-3.268-.589-6.397-1.664-9.29-3.772 10.163-13.555 17.406-25.032 17.406z" fill="#cecece"/><path d="m399.327 456.544h-286.654c-12.36 0-22.38-10.02-22.38-22.38 0-12.36 10.02-22.38 22.38-22.38h286.654c12.36 0 22.38 10.02 22.38 22.38 0 12.36-10.02 22.38-22.38 22.38z" fill="#e7e7e7"/><path d="m399.327 437.963h-286.654c-9.045 0-16.83-5.368-20.36-13.09-1.294 2.831-2.02 5.975-2.02 9.29 0 12.36 10.02 22.38 22.38 22.38h286.654c12.36 0 22.38-10.02 22.38-22.38 0-3.316-.727-6.46-2.02-9.29-3.53 7.722-11.315 13.09-20.36 13.09z" fill="#cecece"/><path d="m256 382.098c1.759-61.46 15.764-119.785 65.699-145.944-19.376-59.329-43.243-105.985-56.145-129.151-3.022 1.187-6.31 1.846-9.754 1.846-3.194 0-6.257-.563-9.096-1.592-12.947 23.275-36.746 69.875-56.061 129.072 49.659 26.246 63.602 84.448 65.357 145.769z" fill="#ff4755"/><path d="m251.193 271.93c-12.553-24.225-36.008-42.113-54.521-53.286-2.045 5.759-4.062 11.653-6.03 17.686 49.659 26.245 63.602 84.447 65.358 145.768 1.76-61.46 15.764-119.785 65.699-145.944-1.995-6.11-4.04-12.077-6.113-17.906-18.612 11.145-42.48 29.172-55.181 53.687-1.949 3.762-7.263 3.757-9.212-.005z" fill="#fc2b3a"/><path d="m341.392 228.135c57.528-17.535 100.961 5.008 124.388 23.023-4.447 4.769-7.173 11.164-7.173 18.199 0 1.009.061 2.004.17 2.985-83.483 20.465-59.451 139.442-59.451 139.442h-143.326c-1.995-79.065 9.867-160.629 85.392-183.649z" fill="#ffe55a"/><path d="m256 411.783h143.327s-1.472-7.298-2.422-18.581h-141.095c-.037 6.19.034 12.393.19 18.581z" fill="#ffd500"/><path d="m170.608 228.135c-57.528-17.535-100.96 5.008-124.388 23.023 4.447 4.769 7.173 11.164 7.173 18.199 0 1.009-.061 2.004-.17 2.985 83.483 20.465 59.451 139.442 59.451 139.442h143.326c1.995-79.065-9.867-160.629-85.392-183.649z" fill="#22a7ff"/><path d="m112.673 411.783h143.327c.156-6.188.227-12.391.19-18.581h-141.095c-.95 11.283-2.422 18.581-2.422 18.581z" fill="#0094fd"/></svg>