<?xml version="1.0" encoding="utf-8"?>
<!-- Generator: Adobe Illustrator 26.2.1, SVG Export Plug-In . SVG Version: 6.00 Build 0)  -->
<svg version="1.1" id="Layer_1" xmlns="http://www.w3.org/2000/svg" xmlns:xlink="http://www.w3.org/1999/xlink" x="0px" y="0px"
	 viewBox="0 0 385.9 295.7" style="enable-background:new 0 0 385.9 295.7;" xml:space="preserve">
<style type="text/css">
	.st0{fill:#222222;}
	.st1{fill:#248277;}
	.st2{fill:#82242F;}
</style>
<g>
	<path class="st0" d="M97,253.6c0.1,4.2,3.5,7.6,7.7,7.6h161.9c4,0,7.3-3.1,7.7-7.1c3.4-40.4,22.7-65.1,43.2-80.4
		c-5.5-7.6-8.6-16.8-8.6-26.9c0-10.9,3.8-20.9,10.1-28.9c-36.8-12.2-63.8,2.7-76.1,12.3c-10.7-18.9-13.7-37.4-13.3-53.4v-0.1
		c-21-1.7-38.1-17.7-41.5-38.1c-32.5,20.2-46.1,53.3-51.3,71.9C112.2,89.8,89.1,85,71.2,85.9c3.8,6.6,5.9,14.4,5.9,22.5
		c0,12.4-4.9,23.7-13,32C79.6,159.4,95.7,193.4,97,253.6L97,253.6z"/>
	<path class="st1" d="M233.7,61.6c17,0,30.8-13.8,30.8-30.8S250.6,0,233.7,0s-30.8,13.8-30.8,30.8S216.7,61.6,233.7,61.6z"/>
	<path class="st2" d="M30.8,139.2c17,0,30.8-13.8,30.8-30.8S47.8,77.6,30.8,77.6S0,91.4,0,108.4S13.8,139.2,30.8,139.2z"/>
	<path class="st2" d="M355.1,116.1c-17,0-30.8,13.8-30.8,30.8s13.8,30.8,30.8,30.8s30.8-13.8,30.8-30.8S372.1,116.1,355.1,116.1
		L355.1,116.1z"/>
	<path class="st0" d="M301.7,288c0-4.3-3.5-7.7-7.7-7.7H77.4c-4.3,0-7.7,3.5-7.7,7.7c0,4.3,3.5,7.7,7.7,7.7H294
		C298.2,295.7,301.7,292.3,301.7,288L301.7,288z"/>
</g>
</svg>
