<svg width="11" height="12" viewBox="0 0 11 12" fill="none" xmlns="http://www.w3.org/2000/svg">
<path d="M5.24496 6.35075C5.53562 6.35075 5.82637 6.23703 6.02851 6.02218L10.1739 1.88944C10.6036 1.45976 10.6036 0.752032 10.1739 0.322261C9.74421 -0.10742 9.03648 -0.10742 8.60671 0.322261L5.24491 3.67142L1.89575 0.322261C1.46607 -0.10742 0.758346 -0.10742 0.328574 0.322261C0.113734 0.537101 0 0.827749 0 1.10582C0 1.38386 0.113725 1.67452 0.328574 1.88937L4.46131 6.02211C4.66346 6.23704 4.95421 6.35075 5.24487 6.35075H5.24496Z" fill="white"/>
<path d="M6.02851 11.6715L10.1739 7.53876C10.6036 7.10908 10.6036 6.40135 10.1739 5.97158C9.74421 5.5419 9.03648 5.5419 8.60671 5.97158L5.24491 9.32074L1.89575 5.97158C1.46607 5.5419 0.758346 5.5419 0.328574 5.97158C0.113734 6.18642 0 6.47707 0 6.75514C0 7.03318 0.113725 7.32384 0.328574 7.53869L4.46131 11.6714C4.66355 11.8737 4.95421 12 5.24487 12C5.53553 12.0001 5.82628 11.8864 6.02842 11.6715L6.02851 11.6715Z" fill="white"/>
</svg>
