<svg width="20" height="20" viewBox="0 0 20 20" fill="none" xmlns="http://www.w3.org/2000/svg">
<circle cx="10" cy="10" r="10" fill="#248277"/>
<path d="M16.077 8.71632C15.8309 7.5602 15.2188 6.47967 14.365 5.66449C13.5528 4.88781 12.5182 4.33642 11.414 4.11854C10.3098 3.90065 9.14178 3.97921 8.08789 4.38682C7.10073 4.76922 6.21142 5.39474 5.55034 6.22475C4.97673 6.9451 4.56023 7.78108 4.36013 8.67782C4.1452 8.66004 3.93029 8.64077 3.71536 8.62298C3.59975 8.6126 3.48414 8.60371 3.36852 8.59333C3.22326 8.58148 3.08245 8.69709 3.02911 8.8216C2.96834 8.96685 3.00687 9.10914 3.10618 9.22625C3.4723 9.66053 3.83841 10.0948 4.20303 10.5291C4.25639 10.5914 4.30827 10.6551 4.36163 10.7173C4.41795 10.784 4.53949 10.83 4.62398 10.8256C4.72773 10.8211 4.80629 10.7826 4.88633 10.7173C5.33099 10.3498 5.77418 9.98366 6.21884 9.61755C6.26034 9.58346 6.30333 9.54789 6.34483 9.51379C6.36558 9.50045 6.38485 9.48415 6.40115 9.46636C6.45599 9.413 6.49453 9.34334 6.50935 9.27071C6.51528 9.2381 6.51528 9.20549 6.5138 9.17288C6.5138 9.16844 6.51232 9.16547 6.51232 9.16103C6.4886 8.98464 6.3641 8.86755 6.19364 8.83641C6.17881 8.83344 6.16251 8.83196 6.14621 8.83048C5.84975 8.80528 5.55183 8.78008 5.2554 8.75489C5.31914 8.50143 5.40066 8.25242 5.49996 8.00933C5.49255 8.02711 5.48514 8.04342 5.47773 8.06121L5.5222 7.95449C5.51479 7.97227 5.50737 7.99154 5.49996 8.00933C5.6052 7.76921 5.72526 7.53651 5.86309 7.31269C5.93424 7.19708 6.00983 7.08294 6.08987 6.97327C6.10914 6.94659 6.12841 6.9214 6.14768 6.89472C6.14916 6.89324 6.15064 6.89027 6.15213 6.88731C6.15064 6.88879 6.14916 6.89027 6.14768 6.89175C6.14175 6.89916 6.13879 6.90213 6.1373 6.90509C6.14027 6.90213 6.1462 6.89324 6.15361 6.88434C6.15213 6.88582 6.15213 6.88731 6.15213 6.88731C6.19511 6.83247 6.2381 6.7791 6.28256 6.72575C6.46191 6.51379 6.65756 6.31518 6.86656 6.13137C6.91547 6.08839 6.96438 6.04688 7.01478 6.00538C7.03108 5.99204 7.04887 5.9787 7.06518 5.96536C7.06814 5.96388 7.06962 5.96092 7.07259 5.95943C7.07852 5.95499 7.08444 5.94906 7.09186 5.94461C7.10223 5.9372 7.11261 5.92831 7.12298 5.9209C7.11261 5.92979 7.10371 5.9372 7.0963 5.94313C7.10223 5.93868 7.10668 5.93572 7.11112 5.93127C7.22081 5.84975 7.33197 5.77119 7.44609 5.69856C7.69362 5.53997 7.95301 5.40211 8.2213 5.28502C8.20352 5.29243 8.18721 5.29984 8.16943 5.30725L8.27615 5.26279C8.25836 5.2702 8.24205 5.27761 8.22427 5.28502C8.64225 5.11457 9.08098 4.9945 9.52713 4.92929C9.50934 4.93077 9.49155 4.93374 9.47376 4.9367C9.51378 4.93225 9.55232 4.92633 9.59234 4.9204C9.57011 4.92336 9.54936 4.92633 9.52713 4.92929C9.98216 4.87445 10.4416 4.87297 10.8967 4.92929C10.8774 4.92633 10.8567 4.92336 10.8374 4.9204C10.8774 4.92633 10.916 4.93077 10.956 4.9367C10.9367 4.93374 10.916 4.93225 10.8967 4.92929C11.3428 4.99451 11.7786 5.11308 12.1951 5.28207C12.1773 5.27466 12.158 5.26576 12.1388 5.25835C12.1743 5.27317 12.2099 5.288 12.2455 5.30282C12.2292 5.29541 12.2114 5.28948 12.1951 5.28207C12.4308 5.38434 12.659 5.50292 12.8784 5.63631C12.9985 5.71042 13.117 5.78749 13.2312 5.8705C13.2564 5.88828 13.2816 5.90755 13.3053 5.92534C13.3142 5.93127 13.3275 5.94312 13.3409 5.9535C13.3423 5.95498 13.3438 5.95646 13.3468 5.95795C13.3527 5.96239 13.3586 5.96684 13.3646 5.97277C13.4031 6.00389 13.4431 6.03502 13.4817 6.06763C13.6907 6.2455 13.8878 6.43819 14.0686 6.64274C14.1116 6.69165 14.1546 6.74205 14.1946 6.79244C14.2168 6.81912 14.2376 6.8458 14.2598 6.87248C14.2643 6.87841 14.2687 6.88285 14.2717 6.88878C14.2702 6.88582 14.2672 6.88434 14.2658 6.88285C14.2672 6.88582 14.2687 6.8873 14.2702 6.88878C14.3547 7.00143 14.4347 7.11704 14.5118 7.23711C14.6704 7.48613 14.8083 7.74552 14.9253 8.01677C14.9179 7.9975 14.909 7.97675 14.9016 7.95748L14.9461 8.0642C14.9402 8.0479 14.9328 8.03308 14.9253 8.01677C15.0943 8.43327 15.2129 8.86903 15.2781 9.31518C15.2766 9.2974 15.2737 9.27961 15.2707 9.26182C15.2766 9.30184 15.2811 9.34038 15.287 9.3804C15.2841 9.35817 15.2811 9.33742 15.2781 9.31666C15.333 9.77021 15.333 10.2297 15.2781 10.6848C15.2811 10.6655 15.2841 10.6447 15.287 10.624C15.2811 10.664 15.2766 10.7025 15.2707 10.7426C15.2737 10.7233 15.2752 10.704 15.2781 10.6848C15.2129 11.1339 15.0928 11.5711 14.9224 11.9921C14.9298 11.9758 14.9372 11.958 14.9446 11.9417C14.9298 11.9772 14.915 12.0128 14.9002 12.0484C14.9076 12.0306 14.915 12.0113 14.9224 11.9935C14.8172 12.2337 14.6956 12.4664 14.5593 12.6902C14.4881 12.8058 14.4125 12.9199 14.3325 13.0296C14.3132 13.0563 14.2939 13.0815 14.2747 13.1082C14.2732 13.1096 14.2717 13.1126 14.2702 13.1141C14.2717 13.1126 14.2717 13.1111 14.2732 13.1096C14.2791 13.1022 14.2821 13.0978 14.2836 13.0963C14.2806 13.0993 14.2747 13.1082 14.2673 13.117C14.2584 13.1304 14.2495 13.1452 14.2391 13.1526C14.2406 13.1497 14.2554 13.1319 14.2673 13.117C14.2673 13.1156 14.2687 13.1141 14.2702 13.1126C14.2272 13.1674 14.1828 13.2208 14.1383 13.2742C13.959 13.4861 13.7633 13.6847 13.5543 13.8685C13.5054 13.9115 13.4565 13.953 13.4061 13.9945C13.3809 14.0153 13.3557 14.0345 13.3305 14.0553C13.329 14.0568 13.3261 14.0583 13.3246 14.0597C13.3201 14.0642 13.3142 14.0672 13.3097 14.0716C13.3157 14.0672 13.3201 14.0627 13.3246 14.0597C13.3261 14.0583 13.3275 14.0583 13.329 14.0568C13.3231 14.0612 13.3186 14.0657 13.3142 14.0686C13.206 14.1502 13.0933 14.2287 12.9792 14.3013C12.7317 14.4599 12.4723 14.5978 12.204 14.7149C12.2218 14.7075 12.2396 14.7001 12.2559 14.6927L12.1492 14.7371C12.167 14.7297 12.1833 14.7223 12.2011 14.7149C11.7831 14.8853 11.3458 15.0054 10.8982 15.0706C10.916 15.0691 10.9338 15.0662 10.9516 15.0647C10.9115 15.0706 10.873 15.0751 10.833 15.081C10.8552 15.078 10.876 15.0751 10.8982 15.0721C10.4417 15.1284 9.98069 15.1284 9.52419 15.0721C9.54346 15.0751 9.56421 15.078 9.58348 15.081C9.54346 15.0751 9.50492 15.0706 9.4649 15.0647C9.48417 15.0677 9.50344 15.0691 9.52271 15.0721C9.07656 15.0069 8.6393 14.8868 8.22131 14.7164C8.2391 14.7238 8.25837 14.7327 8.27615 14.7401L8.16943 14.6956C8.18722 14.703 8.20352 14.7104 8.22131 14.7164C7.81221 14.537 7.43575 14.3073 7.07408 14.0434L7.0726 14.042C7.06963 14.0405 7.06815 14.039 7.06519 14.0375C7.06667 14.039 7.06815 14.0405 7.06963 14.0405C7.06667 14.039 7.06519 14.036 7.06222 14.0346C7.03999 14.0168 7.01776 13.999 6.99553 13.9812C6.94661 13.9412 6.8977 13.8997 6.85027 13.8567C6.76282 13.7796 6.67685 13.6996 6.59385 13.6166C6.51084 13.5336 6.4308 13.4491 6.35373 13.3601C6.31667 13.3172 6.27961 13.2742 6.24256 13.2312C6.22477 13.209 6.20699 13.1867 6.1892 13.1645C6.18475 13.1586 6.17289 13.1437 6.16252 13.1304C6.16845 13.1393 6.17438 13.1452 6.17586 13.1482C6.17289 13.1452 6.16845 13.1378 6.15807 13.126C6.14918 13.1141 6.14325 13.1067 6.14177 13.1037C6.14473 13.1067 6.1477 13.1126 6.15362 13.1185C6.14325 13.1052 6.13287 13.0919 6.12843 13.0859C6.10768 13.0578 6.08693 13.0281 6.06617 13C6.02912 12.9481 5.99206 12.8947 5.95797 12.8414C5.88386 12.7287 5.81271 12.6131 5.74601 12.4945C5.63189 12.2915 5.33692 12.2055 5.1383 12.3344C4.93376 12.4664 4.85667 12.7258 4.97823 12.9422C5.54444 13.9441 6.4056 14.786 7.42831 15.3167C8.4703 15.8577 9.66944 16.0963 10.839 15.9644C11.9121 15.8428 12.9467 15.4545 13.8093 14.7964C14.2272 14.4777 14.6037 14.119 14.9268 13.7025C15.2766 13.2519 15.5553 12.7702 15.7732 12.2425C16.2371 11.1339 16.326 9.88433 16.077 8.7164L16.077 8.71632Z" fill="white"/>
</svg>
