<?xml version="1.0" encoding="utf-8"?>
<!-- Generator: Adobe Illustrator 26.2.1, SVG Export Plug-In . SVG Version: 6.00 Build 0)  -->
<svg version="1.1" id="Layer_1" xmlns="http://www.w3.org/2000/svg" xmlns:xlink="http://www.w3.org/1999/xlink" x="0px" y="0px"
	 viewBox="0 0 921 647.7" style="enable-background:new 0 0 921 647.7;" xml:space="preserve">
<style type="text/css">
	.st0{fill:#2F2E41;}
	.st1{fill:#248277;}
	.st2{fill:#FFB8B8;}
	.st3{opacity:0.1;enable-background:new    ;}
	.st4{fill:#FFFFFF;}
	.st5{fill:#5D576B;}
	.st6{fill:#A0616A;}
</style>
<path class="st0" d="M727.8,646.6c-4.6,0-9.1-0.6-13.5-1.9l-183-49l0.5-1.9l183,49c4.2,1.2,8.6,1.8,13,1.8
	c21.5,0,40.6-12.5,46.5-33.2l130.3-464.6h0l0.3-1c7.1-25.6-7.8-52.2-33.4-59.4L577.2,3.8c-25.6-7.2-52.2,7.8-59.5,33.4l-10.2,36.5
	l-1.9-0.5l10.2-36.5C523.3,10,551-5.6,577.7,1.9l294.2,82.5c26.3,7.4,41.9,34.5,35.1,61l0,0l-0.3,1L776.2,611.9
	C770.1,633.5,750.2,646.6,727.8,646.6z"/>
<polygon class="st1" points="519,84.1 522.3,85 532.6,87.9 533.7,84 529.8,83 533.2,70.9 541.4,63.8 543.5,86.8 537.5,85.1 
	536.5,89 551.9,93.3 553,89.4 549.7,88.5 546.5,59.3 562.5,45.4 567,46.7 568.1,42.8 552.7,38.5 551.6,42.3 556.7,43.8 536.3,59.7 
	542,39.6 545.8,40.7 546.9,36.9 531.5,32.5 530.4,36.4 536.2,38 524.1,81.3 518.3,79.7 518.1,80.2 517.5,82.5 "/>
<path class="st1" d="M543.8,120.6c-3.8,1.7-7.6,3.5-11.2,5.6c-0.7,0.4-1.3,0.8-2,1.2V115c0-4.4-0.6-8.9-1.9-13.1
	c0.6-0.4,1.2-0.8,1.8-1.1c0.5-0.4,1.1-0.7,1.6-1.1C535.3,106.9,539.2,113.9,543.8,120.6z"/>
<polygon class="st1" points="727,611.8 722.5,610.6 721.5,614.4 736.9,618.8 737.9,614.9 732.9,613.5 753.2,597.5 747.6,617.6 
	743.7,616.5 742.6,620.4 758.1,624.7 759.1,620.8 753.4,619.2 765.5,575.9 771.3,577.5 772.4,573.7 757,569.3 755.9,573.2 
	759.7,574.3 756.3,586.4 748.2,593.4 746,570.4 752,572.1 753.1,568.3 737.7,563.9 736.6,567.8 739.9,568.7 743,597.9 "/>
<path class="st1" d="M745.8,536.7c7.2-3.1,14.1-6.9,20.5-11.5c3.4,7.3,7.4,14.3,11.8,21c-7.2,3.2-14,7-20.5,11.5
	C754.3,550.3,750.4,543.3,745.8,536.7z"/>
<path class="st2" d="M610.9,328.5c0,0-5.1,32.9-6.6,34.5s10.5,40.3,10.5,40.3l38.5-22.4c0,0,7.5-41.5,10-42.9
	S610.9,328.5,610.9,328.5z"/>
<path class="st3" d="M610.9,328.5c0,0-5.1,32.9-6.6,34.5s10.5,40.3,10.5,40.3l38.5-22.4c0,0,7.5-41.5,10-42.9
	S610.9,328.5,610.9,328.5z"/>
<circle class="st2" cx="640.7" cy="322.3" r="38"/>
<path class="st4" d="M624.2,381l-3.3-3L606,356.8c0,0-1.7-1.1-3.3,4.7l-1.6,5.8l-14,5.4l-30.9,132.6l82.8,23.2L673,395.7l-16-17
	l-1.8-8.2l-24.7,10.1L624.2,381z"/>
<path class="st5" d="M530.5,518.8l2,0.6l129,36.2l43.1-142.6c0,0-10.2-8.1-18.2-9.3c0,0-13.4-15.2-19.2-16.8
	c-5.8-1.6-12.2-15.9-12.2-15.9s-6.8,24.1-18.3,39.5s-31.8,69-31.8,69l-5.7-98.2l6.4-24.7c-3.7,2.2-7.1,4.9-10.1,8.1
	c-4.5,5-16,9-16,9s-30.3,8.1-35.7,8.7c-5.3,0.6-7.8,2-7.8,2l-3.5,24.3l-2,13.8V518.8z"/>
<path class="st5" d="M548.1,463.5c-1.2,8-13.5,40.9-13.5,40.9l-2.1,2.1l-2,2V386.7c0.6-0.6,1.2-1.1,2-1.4c1.1-0.5,2.3-0.8,3.5-0.9
	l3.9,1.1C539.9,385.4,549.3,455.5,548.1,463.5z"/>
<path class="st2" d="M635.9,505.8c0,0,18.9-34.2,33.3-26s-8.6,30.8-8.6,30.8L635.9,505.8z"/>
<path class="st2" d="M577.4,492.5c0,0-36.3-11.2-37.1-8.3s-10.8,19.8-7.9,20.6s25.3,6.1,25,7s10.7,6.1,10.7,6.1L577.4,492.5z"/>
<polygon class="st1" points="648.2,384.5 625,385.4 620.2,384 601,371.3 594.6,390.4 618.9,388.9 623.7,390.2 643.7,404.1 "/>
<polygon class="st5" points="586,528.2 582.5,535.7 531.5,521.7 530.5,518.8 530.5,502.8 532.5,503.6 534.6,504.4 "/>
<path class="st4" d="M588,495.5c0,0-12-5.4-12.2-4.5s-16.3,28.7-12.5,29.7s17.5,8,17.5,8L588,495.5z"/>
<path class="st5" d="M697.8,411l6.7,1.9c0,0,3.9,1.1,4.2,7.4s5.5,35.8,3.1,37.2s-3.2,0.2-1.8,2.6s2.6,1.8,1.1,3.4s-5,54.7-16.1,72.3
	s-14.6,26-18.4,25l-99.8-28c0,0,4.4-39.3,8.6-39.1s71.6,14.9,71.6,14.9S683.1,407.9,697.8,411z"/>
<path class="st5" d="M618.3,280.6l-6.2-4.5c0,0,18.6-10.4,38.4-3.5l-4.1-7.3c0,0,15.3-1.2,24.2,15.6c4.7,8.8,10.1,19.2,12.3,29.7
	l7.4,2.1l-4.8,5.3l9.1,9.3l-10.8-4.2c-0.4,5.7-2.4,11.1-5.6,15.8l-4.5,6.2c0,0-4.4-23-3.7-25.6l-1.8,6.3c0,0-5.3-7.6-4.3-11.4
	l-5,3.4l0.1-7.5l-25.3,0.4l5.4-4.6l-15-2.2l7.6-5.3c0,0-18.7,3.6-21.3,10.4c-2.6,6.8-13.3,13.3-13.3,13.3l-2-7.4
	C595,315,597.3,285,618.3,280.6z"/>
<path class="st1" d="M605.2,294.3l0.3-1.3c2.9-12.6-19.3-36-19.6-36.2l-0.4-0.4l0.2-0.5c0.4-1.6,2.2-3,17.7,0.4
	c6,1.3,12,2.9,14.5,3.6c-0.3-7.2-9.2-16.7-9.3-16.8l-1.1-1.2l1.6-0.5c10.3-3,22.3,7,26.1,10.5l6.4-22.9l12.7,18.8
	c7.8-11.7,19.1-11.2,19.6-11.2l1.6,0.1l-0.8,1.4c-5.3,9.8-6.3,16.2-6.4,19.4c14.2-16.9,27-15.4,27.6-15.3l1.9,0.3l-1.3,1.4
	c-18.6,19.7-20.8,45.6-20.8,45.9l-0.1,0.9L605.2,294.3z M588.2,256.2c3.9,4.3,20.9,23.5,19.5,35.9l66.1-3.6
	c0.5-4.6,3.9-26.6,19.7-44.5c-4.3,0.4-14.5,2.8-25.2,16.5l-1.2,1.6l-0.5-1.9c-0.1-0.3-1.9-7.3,5.6-21.6c-3.4,0.3-11.3,2.1-16.9,11.5
	l-0.8,1.3l-12-17.8l-6.2,22l-1.2-1.2c-0.1-0.1-13-13-23.8-11.5c2.8,3.2,9.3,11.6,8.6,18.3l-0.1,1.2l-1.1-0.3
	C606,258.5,591.5,255.5,588.2,256.2z"/>
<path class="st1" d="M700.9,236.8c-1.9-0.5-3-2.5-2.5-4.4c0.5-1.9,2.5-3,4.4-2.5s3,2.5,2.5,4.4C704.8,236.2,702.8,237.3,700.9,236.8
	z M702.3,231.8c-0.8-0.2-1.7,0.3-2,1.1c-0.2,0.8,0.3,1.7,1.1,2s1.7-0.3,2-1.1C703.6,232.9,703.1,232,702.3,231.8L702.3,231.8z"/>
<path class="st1" d="M676,229.8c-1.9-0.5-3-2.5-2.5-4.4c0.5-1.9,2.5-3,4.4-2.5s3,2.5,2.5,4.4C679.9,229.2,677.9,230.3,676,229.8z
	 M677.4,224.8c-0.8-0.2-1.7,0.3-2,1.1s0.3,1.7,1.1,2c0.8,0.2,1.7-0.3,2-1.1c0,0,0,0,0,0C678.7,225.9,678.2,225,677.4,224.8
	L677.4,224.8z"/>
<path class="st1" d="M638.1,225.9c-1.9-0.5-3-2.5-2.5-4.4c0.5-1.9,2.5-3,4.4-2.5s3,2.5,2.5,4.4C642,225.3,640,226.4,638.1,225.9z
	 M639.5,220.9c-0.8-0.2-1.7,0.3-2,1.1c-0.2,0.8,0.3,1.7,1.1,2s1.7-0.3,2-1.1C640.9,222,640.4,221.1,639.5,220.9z"/>
<path class="st1" d="M577.7,254.6c-1.9-0.5-3-2.5-2.5-4.4c0.5-1.9,2.5-3,4.4-2.5s3,2.5,2.5,4.4C581.6,254,579.6,255.1,577.7,254.6z
	 M579.1,249.6c-0.8-0.2-1.7,0.3-2,1.1c-0.2,0.8,0.3,1.7,1.1,2s1.7-0.3,2-1.1C580.4,250.7,579.9,249.9,579.1,249.6z"/>
<path class="st1" d="M601.1,238.3c-1.9-0.5-3-2.5-2.5-4.4c0.5-1.9,2.5-3,4.4-2.5s3,2.5,2.5,4.4C604.9,237.8,603,238.9,601.1,238.3z
	 M602.5,233.3c-0.8-0.2-1.7,0.3-2,1.1s0.3,1.7,1.1,2c0.8,0.2,1.7-0.3,2-1.1c0,0,0,0,0,0C603.8,234.5,603.3,233.6,602.5,233.3
	L602.5,233.3z"/>
<polygon class="st5" points="720.3,575.2 719.3,574.9 530.8,522 531.3,520.1 718.9,572.7 837.4,150 573.1,75.9 532.8,219.6 
	530.9,219.1 571.7,73.4 572.7,73.7 839.9,148.6 839.6,149.6 "/>
<path class="st5" d="M41.6,613.9c12.4,23,38.8,32.9,38.8,32.9s6.2-27.5-6.2-50.5s-38.8-32.9-38.8-32.9S29.2,590.8,41.6,613.9z"/>
<path class="st1" d="M50.2,606.3c22.4,13.5,31.1,40.3,31.1,40.3s-27.7,4.9-50.2-8.6S0,597.7,0,597.7S27.7,592.8,50.2,606.3z"/>
<path class="st0" d="M530.4,100.7c-1.7-5.7-4.5-11-8.1-15.7c-1.3-1.7-2.7-3.3-4.2-4.8c-9.2-9.3-21.8-14.5-34.9-14.5H177.7
	c-27.2,0-49.2,22.1-49.2,49.2v483.5c0,27.2,22.1,49.2,49.2,49.2h305.5c27.2,0,49.2-22.1,49.2-49.2V115
	C532.5,110.1,531.8,105.3,530.4,100.7z M530.5,598.5c0,26.1-21.2,47.2-47.2,47.2H177.7c-26.1,0-47.2-21.2-47.2-47.2V115
	c0-26.1,21.2-47.2,47.2-47.2h305.5c13,0,25.3,5.3,34.2,14.7c0.5,0.5,1,1,1.4,1.6c7.4,8.6,11.5,19.5,11.5,30.9V598.5z"/>
<path class="st1" d="M177.2,143.4c-0.1-0.1-0.1-0.2-0.2-0.4c2.3-4.4,3.4-9.3,3.3-14.3c0-15.5-9.7-26.3-23.6-26.3
	s-23.6,10.8-23.6,26.3s9.7,26.3,23.6,26.3c6.6,0.1,13-2.7,17.3-7.7c4.4,7.2,13,8.1,13.4,8.2l0.5-4.6
	C187.7,151,180.1,150.1,177.2,143.4z M156.8,150.5c-11.2,0-18.9-8.9-18.9-21.7s7.8-21.7,18.9-21.7s18.9,8.9,18.9,21.7
	c0,3.6-0.7,7.3-2.1,10.6c-6.9-4.2-19.7-1.7-21.5-1.3l1,4.5c4.7-1,14.1-1.8,18.2,0.8C167.9,148,162.5,150.6,156.8,150.5L156.8,150.5z
	"/>
<path class="st1" d="M158.5,166.1c-3.1-3.1-8.2-3.1-11.3,0s-3.1,8.2,0,11.3l11.3,11.3l11.3-11.3c3.1-3.1,3.1-8.2,0-11.3
	C166.7,163,161.6,163,158.5,166.1z"/>
<path class="st1" d="M483.8,573.1c0.1,0.1,0.1,0.2,0.2,0.4c-2.3,4.4-3.4,9.3-3.3,14.3c0,15.5,9.7,26.3,23.6,26.3
	s23.6-10.8,23.6-26.3s-9.7-26.3-23.6-26.3c-6.6-0.1-13,2.7-17.3,7.7c-4.4-7.2-13-8.1-13.4-8.2l-0.5,4.6
	C473.3,565.6,480.9,566.5,483.8,573.1z M504.2,566.1c11.2,0,18.9,8.9,18.9,21.7s-7.8,21.7-18.9,21.7s-18.9-8.9-18.9-21.7
	c0-3.6,0.7-7.3,2.1-10.6c6.9,4.2,19.7,1.7,21.5,1.3l-1-4.5c-4.7,1-14.1,1.8-18.2-0.8C493.1,568.6,498.5,566,504.2,566.1L504.2,566.1
	z"/>
<path class="st1" d="M502.5,550.5c3.1,3.1,8.2,3.1,11.3,0c3.1-3.1,3.1-8.2,0-11.3l-11.3-11.3l-11.3,11.3c-3.1,3.1-3.1,8.2,0,11.3
	C494.3,553.6,499.4,553.6,502.5,550.5z"/>
<path class="st5" d="M355.1,340.4c-13.6-23-40.5-24.1-40.5-24.1s-26.2-3.4-43.1,31.7c-15.7,32.7-37.4,64.2-3.5,71.8l6.1-19l3.8,20.5
	c4.8,0.3,9.7,0.4,14.5,0.2c36.3-1.2,70.8,0.3,69.7-12.7C360.6,391.6,368.2,362.6,355.1,340.4z"/>
<path class="st6" d="M304.9,418.8c0.1,2.6,0,5.3-1.2,7.6c-2.6,4.5-8.8,5.1-12.5,8.6c-3.9,3.7-4.4,9.7-4.6,15.1
	c-0.2,5.6-0.4,11.5,1.7,16.7c1.3,2.9,2.9,5.6,4.8,8.2c2.3,3.3,4.6,6.6,6.9,9.8c1.2,1.8,2.6,3.6,4.1,5.2c4.2,4.2,9.9,6.6,15.6,8.3
	c3.7,1.1,7.7,1.9,11.3,0.8c2.4-0.9,4.7-2.3,6.6-4.1c2.7-2.2,5.5-4.4,7.5-7.2c3.1-4.5,3.9-10,4.6-15.4c1.9-15.9,2.6-31.9,2.2-48
	c0.1-1.7-0.2-3.5-0.9-5.1c-1.9-3.7-7-4.5-9.7-7.7c-2.3-2.7-2.4-6.6-2.4-10.2l0-9.1c0.1-0.8-0.1-1.5-0.4-2.2
	c-0.7-0.7-1.6-1.2-2.6-1.2c-5.6-0.9-11.3-1.3-17-1.1c-4.6,0.1-13.5-0.2-17.5,2.3c-3.6,2.3,0.9,8.8,1.8,12.4
	C304.3,407.9,304.9,413.4,304.9,418.8z"/>
<circle class="st6" cx="315.5" cy="366.7" r="36.6"/>
<path class="st4" d="M300.5,457.3c-2.3-3.5-4.2-7.2-5.7-11.1c-1.3-4-1.7-8.4-0.1-12.2c-4-2.3-9.3-0.4-12.2,3.1s-3.8,8.3-4,12.9
	s0,9.2-1,13.7c-2.2,9.9-10.4,18-11,28.1c-0.6,9.9,6.2,18.6,9.6,28c2,5.8,2.9,12,2.5,18.2c-0.1,2-0.2,4.3,1.2,5.7
	c0.7,0.6,1.6,1.1,2.5,1.4c16.2,5.7,33.6,6.2,50.8,6.6l28.3,0.7c1.7,0.2,3.4-0.1,5-0.8c2.5-1.6,2.9-5,2.9-8
	c0.4-25.7-0.7-51.3-1.8-76.9c-0.4-9.3-0.8-18.6-2.8-27.7c-0.5-2.3-1.3-4.9-3.5-5.9c-1.8-0.9-4-0.3-5.8,0.4
	c-8.8,3.3-16.4,9.1-21.8,16.7c-5.8,8.3-8.7,18.2-14.4,26.5c-4.1,6-6.5,0.8-9.3-3.7C306.8,467.7,303.7,462.5,300.5,457.3z"/>
<path class="st5" d="M296.1,434.6c-0.7,0.5-1.4,1-2.1,1.6c-2.5,2.1-4.8,4.5-6.8,7.2c-3.3,4.4-5.9,9.3-7.7,14.5
	c-3.3,9.1-4.8,18.8-6.1,28.3c-0.6,3.5-0.9,7.1-1,10.7c0.2,13.2,8,25.3,8,38.5c0,0.5,0,1,0,1.5c-0.1,2.2-0.3,4.3-0.8,6.4
	c-0.6,3.1-1.4,6.1-2.2,9.2c-2,7.6-4.2,15.5-8.2,22.2c-0.4,0.7-0.8,1.3-1.3,2h-28c0.2-0.7,0.5-1.3,0.7-2c4.8-14.1,9.5-28.3,14.3-42.4
	c1.5-4.3,2.9-8.7,4-13.1c1.2-5.5,2-11,2.4-16.6c1.1-11.6,1.8-23.2,2.2-34.8c0.1-4.2,0.2-8.5,1.6-12.4c1.3-3.2,2.9-6.3,5-9.1
	c2.9-4.4,5.8-8.7,8.7-13c1.6-2.4,3.3-4.9,5.8-6.4c2.1-1.3,4.5-1.7,6.7-2.8c1.4-0.8,2.7-1.7,3.9-2.6c3.3-2.3,7.1-4.7,9.9-2.4
	c0.5,0.4,0.8,0.8,1.2,1.3c0.2,0.2,0.3,0.5,0.4,0.8C309.2,427,299.7,432.1,296.1,434.6z"/>
<path class="st5" d="M388.3,576.8H258.6c0.7-0.6,1.4-1.3,2.1-2c0.1-0.1,0.2-0.2,0.3-0.3c5-5.2,6.1-11.5,8.6-18.2
	c1.9-5,3.7-10.1,5.6-15.1c0.3-1,0.8-1.9,1.4-2.7c0.5-0.6,1.2-1,2-1.2c0.6-0.2,1.1-0.3,1.7-0.3c0.8-0.1,1.7-0.1,2.5,0
	c23.3,1.2,46.5,2.7,69.8,4.4c3,0.2,6,0.5,9,0.7c2.5,1.8,4.9,3.8,7.2,5.8c7.5,6.6,14,14.4,17.8,23.5c0.5,1.1,0.9,2.2,1.2,3.4
	C388,575.4,388.2,576.1,388.3,576.8z"/>
<polygon class="st5" points="349.1,338.2 322.5,324.3 285.8,330 278.2,363.6 297.1,362.8 302.4,350.5 302.4,362.6 311.1,362.3 
	316.2,342.7 319.3,363.6 350.4,362.9 "/>
<path class="st5" d="M388.3,576.8H359c-0.2-0.7-0.4-1.3-0.6-2c-2.1-7.4-3.6-15-4.5-22.7c-0.3-2.2-0.6-4.4-0.8-6.6
	c-0.2-1.4-0.3-2.8-0.5-4.2c-1.7-15.4-3-31-7.7-45.8c-0.6-1.8-1.2-3.6-1.8-5.3c-1.1-3.1-2-6.2-2.6-9.4c-1.3-7.3-0.3-14.9-1.6-22.2
	c-0.7-4.1-2.2-7.7-3.1-11.4c-0.6-2.3-0.8-4.6-0.7-6.9c2.2-2,4.9-3.4,7.8-3.9c1-0.2,2.1-0.3,2.8-1.1c0.4-0.6,0.5-1.3,0.5-2
	c0.1-4.7-0.2-9.4-0.8-14.1c-0.2-1.6-0.5-3.3-0.8-4.9c0-0.1,0-0.2,0-0.2c2.4-1.1,5.2-1.1,7.8-1.1c2.9,0,5.8,0,8.6,0
	c5.3,0,10.7,0,16,0c5,0,10.1,0.1,14.6,2.1c4.7,2.1,8.2,6.2,10.5,10.8s3.6,9.6,4.8,14.6c0.3,1.4,0.5,2.8,0.5,4.2
	c0.2,11.3-8.2,22.6-9,34.1c-0.3,3.7,0,7.5-0.3,11.2c-0.3,3.7-1.3,7.4-1.5,11.1c0,0.2,0,0.4,0,0.6c-0.1,4.9,1.3,9.6,3,14.2
	c2.5,7.1,5.6,14,8.8,20.9c3.1,6.7,6.2,13.3,9.1,20c1.5,3.1,2.5,6.5,3,9.9c0.3,2.8-0.2,5.5-1.5,8c-0.3,0.6-0.7,1.2-1.2,1.7l0,0
	c-0.1,0.1-0.2,0.2-0.3,0.3L388.3,576.8L388.3,576.8z"/>
<path class="st2" d="M416.2,566.5c-0.1,1.3-0.5,2.6-1.1,3.8c0,0.1-0.1,0.2-0.2,0.3c-0.6,1.4-1.2,2.7-1.8,4.1c-0.3,0.7-0.6,1.3-0.9,2
	h-16.6c0.6-0.6,1.2-1.3,1.7-2c2.5-3.5,4-7.8,6.6-11.6c0.4-0.5,0.8-1,1.2-1.4C409.4,557.7,416.5,558.5,416.2,566.5z"/>
<path class="st5" d="M427,576.8c0.2-0.7,0.4-1.3,0.5-2c0.1-0.5,0.2-1,0.3-1.6c0.5-3.5,0.5-7.1,1.3-10.5c1.2-4.9,4.7-10.7,1.8-14.8
	c2.2-0.5,4.4-1.4,6.2-2.8c1.7-1.5,2.7-4.1,1.7-6.1c-1-2-3.8-3.3-3.4-5.6c0.2-0.7,0.5-1.4,1-1.9c3.1-4.9,3-11.2-0.2-15.9
	c-0.9-1.3-2-2.4-2.9-3.8c-0.9-1.7-1.6-3.4-2.1-5.3c-2.9-9.3-7.1-18.1-12.6-26.2c-1.2-1.5-2.2-3.3-2.8-5.2c-0.4-2-0.4-4.1-0.2-6.1
	c0.2-8.1-2.8-16-7.2-22.8c-0.3-0.5-0.7-1-1-1.5c-4.2-6.2-9.4-11.6-14.6-17c-2.1,1-4,1.7-5.1,3.7c-0.5,1.2-0.9,2.4-1,3.7
	c-1.4,9.9-2.7,19.9-3.6,29.8c-0.5,5-1,10.1-0.4,15.1s2.3,10,5.7,13.8c2.1,2.3,4.8,4.1,7.1,6.2c0.4,0.3,0.7,0.7,1.1,1.1
	c1.7,1.8,3.1,3.7,4.4,5.8c5.5,9,8.1,19.4,7.3,29.9c-0.1,1.9-0.4,3.8-0.8,5.6c-0.4,2.7-1.3,5.2-2.7,7.6c-1,1.7-2.4,3.2-3.4,5
	s-1.4,4-0.5,5.8c1.4,0,2.8,0.2,4.1,0.7c3.1,1.2,5.8,3.3,7.8,6c0.7,1,1.4,2,2,3c0.7,1.3,1.4,2.7,2,4.1c0.2,0.5,0.5,1.1,0.7,1.7
	c0.1,0.1,0.1,0.2,0.1,0.3L427,576.8z"/>
<polygon class="st1" points="345.2,402.8 324,412.1 319.1,412.5 296.4,407.6 297.4,427.7 319.5,417.5 324.5,417 348.2,422.7 "/>
<path class="st0" d="M387.7,574.8c0.2,0.7,0.4,1.3,0.6,2h7.4c0.6-0.6,1.2-1.3,1.7-2H387.7z M191.8,135.8v441h276.5v-441H191.8z
	 M466.2,574.8H193.8v-437h272.5V574.8z M387.7,574.8c0.2,0.7,0.4,1.3,0.6,2h7.4c0.6-0.6,1.2-1.3,1.7-2H387.7z"/>
<path class="st1" d="M282.6,328.7l0.2-0.9c0.1-0.3,4.9-25.8-7.7-49.8l-0.9-1.7l1.9,0.3c0.6,0.1,13.3,2.1,22.4,22.2
	c0.8-3.1,1.6-9.5-0.9-20.4l-0.4-1.5l1.5,0.3c0.5,0.1,11.5,2.7,15.8,16l17.3-14.6v23.8c4.7-2.4,18.9-8.7,28-3.1l1.4,0.9l-1.4,0.8
	c-0.1,0.1-11.3,6.8-13.5,13.7c2.6,0,8.8,0.1,15,0.5c15.8,0.9,17.1,2.8,17.1,4.4v0.6l-0.5,0.3c-0.3,0.2-28,16.7-28.6,29.6l-0.1,1.3
	L282.6,328.7z M345.2,316.8H344l0.2-1.2c1.1-6.6,9.7-12.9,13.2-15.3c-9.9-4.4-25.8,4.6-26,4.7l-1.5,0.9V283l-16.4,13.8l-0.4-1.5
	c-2.9-10.5-10-14.4-13.2-15.6c3.3,15.8-0.3,22-0.5,22.3l-1,1.7l-0.8-1.8c-6.6-16.1-15.7-21.2-19.8-22.7c10.4,21.5,7.7,43.6,7,48.2
	l62.7,21.3c2-12.4,23.6-26.3,28.5-29.3C373,317.8,358.3,316.8,345.2,316.8L345.2,316.8z"/>
<path class="st1" d="M269.2,266.6c0-2,1.6-3.6,3.6-3.6s3.6,1.6,3.6,3.6s-1.6,3.6-3.6,3.6C270.8,270.2,269.2,268.6,269.2,266.6z
	 M271.2,266.6c0,0.9,0.7,1.6,1.6,1.6s1.6-0.7,1.6-1.6c0-0.9-0.7-1.6-1.6-1.6C271.9,265,271.2,265.7,271.2,266.6z"/>
<path class="st1" d="M295,266.6c0-2,1.6-3.6,3.6-3.6s3.6,1.6,3.6,3.6s-1.6,3.6-3.6,3.6C296.6,270.2,295,268.6,295,266.6z M297,266.6
	c0,0.9,0.7,1.6,1.6,1.6s1.6-0.7,1.6-1.6c0-0.9-0.7-1.6-1.6-1.6C297.8,265,297,265.7,297,266.6z"/>
<path class="st1" d="M332.6,273.1c0-2,1.6-3.6,3.6-3.6s3.6,1.6,3.6,3.6c0,2-1.6,3.6-3.6,3.6l0,0
	C334.2,276.7,332.6,275.1,332.6,273.1z M334.6,273.1c0,0.9,0.7,1.6,1.6,1.6s1.6-0.7,1.6-1.6s-0.7-1.6-1.6-1.6l0,0
	C335.3,271.5,334.6,272.2,334.6,273.1z"/>
<path class="st1" d="M383,317.1c0-2,1.6-3.6,3.6-3.6s3.6,1.6,3.6,3.6c0,2-1.6,3.6-3.6,3.6l0,0C384.6,320.6,383,319,383,317.1z
	 M385,317.1c0,0.9,0.7,1.6,1.6,1.6s1.6-0.7,1.6-1.6s-0.7-1.6-1.6-1.6l0,0C385.7,315.5,385,316.2,385,317.1z"/>
<path class="st1" d="M364.9,295.1c0-2,1.6-3.6,3.6-3.6c2,0,3.6,1.6,3.6,3.6c0,2-1.6,3.6-3.6,3.6c0,0,0,0,0,0
	C366.5,298.7,364.9,297,364.9,295.1z M366.9,295.1c0,0.9,0.7,1.6,1.6,1.6c0.9,0,1.6-0.7,1.6-1.6c0-0.9-0.7-1.6-1.6-1.6c0,0,0,0,0,0
	C367.6,293.5,366.9,294.2,366.9,295.1z"/>
<rect x="12" y="645.3" class="st5" width="909" height="2"/>
</svg>
