<svg width="30" height="30" viewBox="0 0 30 30" fill="none" xmlns="http://www.w3.org/2000/svg">
<circle cx="15" cy="15" r="15" fill="#248277"/>
<path d="M8.81247 7.5C8.09508 7.5 7.5 8.09508 7.5 8.81247V21.1875C7.5 21.9049 8.09508 22.5 8.81247 22.5H21.1875C21.9049 22.5 22.5 21.9049 22.5 21.1875V11.0625C22.5004 10.9133 22.4413 10.7699 22.336 10.6641L19.3359 7.66403C19.2301 7.55874 19.0868 7.49962 18.9375 7.50002L8.81247 7.5ZM8.81247 8.62507H10.3125V13.3126C10.3125 13.4617 10.3718 13.6048 10.4773 13.7103C10.5827 13.8157 10.7258 13.875 10.875 13.875H18.3751C18.5242 13.875 18.6673 13.8157 18.7728 13.7103C18.8782 13.6048 18.9375 13.4617 18.9376 13.3126V8.85945L21.375 11.2969V21.1875C21.375 21.3011 21.3011 21.375 21.1876 21.375H8.81254C8.69902 21.375 8.62512 21.3011 8.62512 21.1875V8.81247C8.62512 8.69895 8.69901 8.62505 8.81254 8.62505L8.81247 8.62507ZM11.4376 8.62507H17.8126V12.7501H11.4376V8.62507ZM15.0001 15.1876C13.6605 15.1876 12.5625 16.2855 12.5625 17.625C12.5625 18.9646 13.6605 20.0626 15.0001 20.0626C16.3396 20.0626 17.4376 18.9646 17.4376 17.625C17.4376 16.2855 16.3396 15.1876 15.0001 15.1876ZM15.0001 16.3125C15.7316 16.3125 16.3125 16.8935 16.3125 17.625C16.3125 18.3567 15.7316 18.9376 15.0001 18.9376C14.2686 18.9376 13.6876 18.3566 13.6876 17.625C13.6876 16.8935 14.2686 16.3125 15.0001 16.3125Z" fill="white"/>
</svg>
