<svg width="30" height="30" viewBox="0 0 30 30" fill="none" xmlns="http://www.w3.org/2000/svg">
<circle cx="15" cy="15" r="15" fill="#248277"/>
<path d="M14.9935 22.5C14.7048 22.4997 14.4163 22.4832 14.1294 22.4505C13.9243 22.4263 13.7361 22.3249 13.6031 22.1669C13.4702 22.0089 13.4025 21.8061 13.4138 21.5999C13.4274 21.3618 13.3672 21.1255 13.2413 20.923C13.1153 20.7205 12.9299 20.5619 12.7103 20.4688C12.4882 20.3875 12.2473 20.3726 12.0169 20.4258C11.7865 20.4791 11.5765 20.5983 11.4127 20.7688C11.2737 20.9213 11.0821 21.0152 10.8766 21.0316C10.6711 21.048 10.467 20.9858 10.3056 20.8574C9.86643 20.503 9.46839 20.1004 9.119 19.6573C8.99344 19.497 8.93285 19.2954 8.94928 19.0924C8.96571 18.8895 9.05789 18.7002 9.20753 18.5622C9.3828 18.4035 9.50543 18.1951 9.55901 17.9648C9.61269 17.7345 9.59469 17.4934 9.50753 17.2735C9.42277 17.0612 9.27596 16.8793 9.08624 16.7516C8.89642 16.6241 8.67261 16.5566 8.44395 16.558H8.42448C8.04046 16.558 7.5949 16.282 7.54845 15.8395H7.54834C7.48389 15.2728 7.48389 14.7006 7.54834 14.1339C7.56958 13.9319 7.66679 13.7456 7.82029 13.6128C7.97379 13.4799 8.17209 13.4104 8.37498 13.4183C8.61513 13.4267 8.85255 13.3646 9.05785 13.2395C9.26316 13.1145 9.42723 12.9321 9.52999 12.7147C9.6205 12.4941 9.64028 12.2507 9.58649 12.0183C9.53281 11.7857 9.40819 11.5757 9.22998 11.4172C9.07699 11.2766 8.98376 11.0827 8.96921 10.8754C8.95467 10.6681 9.02007 10.4631 9.15202 10.3026C9.50843 9.85668 9.91568 9.45393 10.3655 9.10244C10.5268 8.9774 10.729 8.91744 10.9325 8.93439C11.1358 8.95135 11.3254 9.04395 11.4636 9.194C11.627 9.36247 11.8353 9.48039 12.0638 9.53367C12.2923 9.58683 12.5313 9.57312 12.7522 9.49401C12.9701 9.40298 13.155 9.24759 13.2823 9.04878C13.4097 8.84986 13.4733 8.61693 13.4648 8.38096C13.4574 8.17649 13.5275 7.97695 13.661 7.82198C13.7945 7.66711 13.9816 7.56833 14.1849 7.54532C14.7457 7.48295 15.312 7.48494 15.8725 7.55139C16.0774 7.57472 16.2655 7.67559 16.3985 7.83308C16.5315 7.99067 16.5993 8.19306 16.588 8.39897C16.5748 8.63692 16.6353 8.8732 16.7612 9.07558C16.8871 9.27796 17.0723 9.43668 17.2916 9.53003C17.5137 9.61155 17.7546 9.62661 17.9851 9.57335C18.2156 9.52009 18.4255 9.4007 18.5891 9.23004C18.7287 9.0781 18.921 8.98508 19.1267 8.97012C19.3324 8.95505 19.5361 9.01898 19.6962 9.14905C20.1371 9.50262 20.5362 9.90519 20.8859 10.3491C21.0112 10.51 21.0718 10.7121 21.0554 10.9154C21.039 11.1187 20.9469 11.3085 20.7973 11.4472C20.5646 11.6576 20.4282 11.954 20.4195 12.2676C20.4108 12.5812 20.5307 12.8847 20.7513 13.1077C20.972 13.3307 21.2742 13.4537 21.5879 13.4484C21.966 13.4484 22.4055 13.7244 22.4549 14.1669C22.5195 14.7336 22.5195 15.3059 22.4549 15.8726C22.4305 16.0779 22.3289 16.2662 22.1706 16.3994C22.0124 16.5325 21.8094 16.6005 21.6029 16.5896H21.5294C21.2175 16.5895 20.9189 16.7162 20.7022 16.9406C20.4855 17.1651 20.3695 17.468 20.3807 17.7797C20.3918 18.0915 20.5292 18.3852 20.7614 18.5937C20.9133 18.7321 21.0073 18.9229 21.0242 19.1278C21.0413 19.3326 20.98 19.5363 20.8528 19.6978C20.4957 20.143 20.0884 20.5456 19.6393 20.8979C19.479 21.0233 19.2774 21.0836 19.0746 21.0667C18.8718 21.0496 18.6829 20.9567 18.5457 20.8064C18.3819 20.6377 18.173 20.5198 17.9439 20.4667C17.715 20.4134 17.4755 20.4272 17.2541 20.5063C17.0365 20.5969 16.8516 20.7517 16.7244 20.9501C16.597 21.1484 16.5332 21.3809 16.5416 21.6164C16.5485 21.8204 16.4782 22.0195 16.3446 22.1738C16.2111 22.3282 16.0243 22.4264 15.8215 22.449C15.5466 22.4806 15.2702 22.4977 14.9935 22.5L14.9935 22.5ZM14.2434 21.6269C14.7295 21.6811 15.22 21.6811 15.7061 21.6269C15.6952 21.2246 15.8068 20.8287 16.0259 20.4911C16.245 20.1537 16.5613 19.8906 16.9331 19.7368C17.3091 19.5927 17.7192 19.5625 18.1121 19.6499C18.5051 19.7375 18.8636 19.9389 19.1428 20.2288C19.5303 19.9223 19.8825 19.5737 20.1929 19.1892C19.8939 18.9137 19.6869 18.5529 19.5999 18.1558C19.513 17.7586 19.5503 17.3443 19.7069 16.9691C19.8601 16.6094 20.1151 16.3023 20.4405 16.0857C20.7659 15.869 21.1476 15.7521 21.5385 15.7495H21.633C21.6857 15.2644 21.6857 14.775 21.633 14.2899C21.619 14.2806 21.6031 14.2745 21.5865 14.2719C21.0504 14.2776 20.535 14.0656 20.1582 13.6843C19.7813 13.3031 19.5752 12.7853 19.5872 12.2493C19.5991 11.7134 19.828 11.2052 20.2214 10.8412C19.9214 10.4598 19.5798 10.1131 19.2029 9.80754C18.9229 10.0998 18.5622 10.3021 18.1667 10.3886C17.7714 10.4752 17.3592 10.4421 16.9827 10.2936C16.607 10.1361 16.2888 9.86706 16.0709 9.5229C15.8531 9.17862 15.7461 8.77587 15.7646 8.36894C15.2786 8.31473 14.788 8.31473 14.302 8.36894C14.312 8.77097 14.2001 9.1667 13.9811 9.50396C13.7621 9.84132 13.4462 10.1046 13.0748 10.259C12.6996 10.4029 12.2904 10.4333 11.898 10.3463C11.5056 10.2594 11.1475 10.059 10.8682 9.77006C10.4807 10.0765 10.1285 10.4252 9.81816 10.8097C10.1166 11.0861 10.3232 11.4475 10.4101 11.8449C10.4971 12.2424 10.46 12.657 10.3042 13.0329C10.1389 13.403 9.86787 13.7159 9.52507 13.9324C9.18238 14.1489 8.78329 14.2591 8.37802 14.2494C8.32528 14.7334 8.32528 15.2219 8.37802 15.706C8.39508 15.7163 8.41391 15.7234 8.43359 15.727C8.82704 15.7233 9.21263 15.8379 9.54024 16.0559C9.86785 16.2739 10.1224 16.5853 10.2711 16.9496C10.4227 17.323 10.4574 17.7335 10.3705 18.1269C10.2838 18.5204 10.0797 18.8783 9.7851 19.1532C10.088 19.5373 10.4332 19.886 10.8142 20.1928C11.0935 19.8995 11.4542 19.6965 11.8498 19.6099C12.2456 19.5233 12.6581 19.557 13.0344 19.7067C13.4093 19.8636 13.7272 20.1315 13.9449 20.4747C14.1628 20.8178 14.2702 21.2194 14.2525 21.6254L14.2434 21.6269ZM15.0144 17.7912C14.2774 17.7916 13.5706 17.4992 13.0493 16.9783C12.5279 16.4575 12.235 15.7509 12.2346 15.014C12.2344 14.277 12.5269 13.5702 13.0478 13.049C13.5688 12.5278 14.2754 12.2349 15.0124 12.2348C15.7493 12.2346 16.456 12.5273 16.9772 13.0483C17.4983 13.5694 17.7911 14.2761 17.7911 15.013C17.7907 15.7494 17.498 16.4556 16.9774 16.9765C16.4568 17.4974 15.7508 17.7904 15.0144 17.7912H15.0144ZM15.0144 13.0658C14.4971 13.0658 14.0012 13.2712 13.6353 13.6369C13.2696 14.0027 13.0642 14.4987 13.0642 15.016C13.0642 15.5331 13.2696 16.0292 13.6353 16.3949C14.0012 16.7606 14.4972 16.966 15.0144 16.966C15.5315 16.966 16.0276 16.7606 16.3933 16.3949C16.759 16.0292 16.9644 15.5331 16.9644 15.016C16.9649 14.4984 16.7596 14.002 16.3938 13.636C16.028 13.2699 15.5318 13.0643 15.0144 13.0643V13.0658Z" fill="white"/>
</svg>
