<svg width="31" height="31" viewBox="0 0 31 31" fill="none" xmlns="http://www.w3.org/2000/svg">
<circle cx="15.5" cy="15.5" r="15.5" fill="#248277"/>
<path d="M20.5703 10.4358C20.5703 13.1854 18.3331 15.4211 15.5851 15.4211C12.837 15.4211 10.5998 13.1839 10.5998 10.4358C10.5998 7.68779 12.8355 5.45056 15.5851 5.45056C18.3346 5.45056 20.5703 7.68779 20.5703 10.4358ZM15.5851 7.00845C13.6954 7.00845 12.1577 8.54463 12.1577 10.4343C12.1577 12.3241 13.6954 13.8632 15.5851 13.8632C17.4747 13.8632 19.0124 12.3255 19.0124 10.4358C19.0124 8.54618 17.4747 7.00845 15.5851 7.00845Z" fill="white"/>
<path d="M9.19769 24.4569V22.3537C9.19769 18.8312 12.0626 15.9663 15.585 15.9663C19.1075 15.9663 21.9724 18.8312 21.9724 22.3537V24.4569H20.4145V22.3537C20.4145 19.6912 18.2475 17.5242 15.585 17.5242C12.9226 17.5242 10.7556 19.6912 10.7556 22.3537V24.4569H9.19769Z" fill="white"/>
</svg>
