<svg width="30" height="30" viewBox="0 0 30 30" fill="none" xmlns="http://www.w3.org/2000/svg">
<circle cx="15" cy="15" r="15" fill="#248277"/>
<path d="M18.9355 11.4344C18.9355 13.6044 17.1699 15.3689 15.0011 15.3689C12.8323 15.3689 11.0667 13.6032 11.0667 11.4344C11.0667 9.26564 12.8311 7.5 15.0011 7.5C17.1711 7.5 18.9355 9.26564 18.9355 11.4344ZM15.0011 8.72951C13.5098 8.72951 12.2962 9.94187 12.2962 11.4332C12.2962 12.9247 13.5098 14.1393 15.0011 14.1393C16.4924 14.1393 17.706 12.9257 17.706 11.4344C17.706 9.9431 16.4924 8.72951 15.0011 8.72951Z" fill="white"/>
<path d="M9.96003 22.5V20.8402C9.96003 18.0602 12.221 15.7992 15.001 15.7992C17.781 15.7992 20.042 18.0602 20.042 20.8402V22.5H18.8125V20.8402C18.8125 18.7389 17.1023 17.0287 15.001 17.0287C12.8997 17.0287 11.1895 18.7389 11.1895 20.8402V22.5H9.96003Z" fill="white"/>
</svg>
