<?xml version="1.0" encoding="utf-8"?>
<!-- Generator: Adobe Illustrator 26.2.1, SVG Export Plug-In . SVG Version: 6.00 Build 0)  -->
<svg version="1.1" id="Layer_1" xmlns="http://www.w3.org/2000/svg" xmlns:xlink="http://www.w3.org/1999/xlink" x="0px" y="0px"
	 viewBox="0 0 892.7 705.6" style="enable-background:new 0 0 892.7 705.6;" xml:space="preserve">
<style type="text/css">
	.st0{fill:#FFB6B6;}
	.st1{fill:#5D576B;}
	.st2{fill:#B8B8D1;}
	.st3{fill:#F2F2F2;}
	.st4{fill:#FFFFFF;}
	.st5{fill:#248277;}
	.st6{fill:#3F3D56;}
	.st7{fill:#E4E4E4;}
	.st8{fill:#9E616A;}
	.st9{fill:#CACACA;}
</style>
<polygon class="st0" points="561.3,643.1 547.8,643.1 541.4,591.1 561.3,591.1 "/>
<path class="st1" d="M564.8,656.2l-43.5,0v-0.6c0-9.4,7.6-16.9,16.9-16.9h0l26.6,0L564.8,656.2z"/>
<polygon class="st0" points="512.9,643.1 499.4,643.1 493,591.1 512.9,591.1 "/>
<path class="st1" d="M516.3,656.2l-43.5,0v-0.6c0-9.4,7.6-16.9,16.9-16.9h0l26.6,0L516.3,656.2z"/>
<path class="st0" d="M355.7,278.4c4.1,5.6,11.9,6.8,17.5,2.8c0.6-0.4,1.2-0.9,1.7-1.5l26.7,10.4l10.3-14.7L374,261.2
	c-5.3-4.5-13.3-3.8-17.8,1.5C352.5,267.2,352.3,273.7,355.7,278.4L355.7,278.4z"/>
<polygon class="st1" points="512.7,367.3 477.6,378.8 489.3,627.8 516.5,628.5 530.3,452.9 533.5,627.8 567,629.6 579.4,367.3 "/>
<path class="st2" d="M489,220.6l90.2-19.6l10,77.7l-8.4,37.1l3.3,56.4c0,0-71.3,35.5-106.7,6.6c0,0,28.4-74.6,11.9-109.5L489,220.6z
	"/>
<path class="st2" d="M504.6,231.5l-15.6-11c0,0-0.9-1.3-13.9,13.9s-39.4,39.4-39.4,39.4l-44-16.5l-8,29.6l51.2,23.8l72.4-48.4
	L504.6,231.5z"/>
<path class="st0" d="M584.3,401.3c6.3-3,8.9-10.4,6-16.7c-0.3-0.7-0.7-1.3-1.1-1.9l15.2-24.3l-12.5-12.8l-21,34.6
	c-5.4,4.4-6.2,12.3-1.8,17.7C572.7,402.4,579,403.8,584.3,401.3z"/>
<path class="st2" d="M565.2,216.3l14.1-15.3c0,0,15.7-5.5,28.5,22.8s27.1,85.5,27.1,85.5l-33.5,64.4l-26-11.6l26-53.3l-27.5-39.5
	L565.2,216.3z"/>
<circle class="st0" cx="527.3" cy="168.9" r="29.3"/>
<path class="st1" d="M552,142.7c-1.4-5.8-6.2-10.4-11.8-12.6s-11.8-2.1-17.7-1.1c-9.8,1.7-18.9,5.9-27.9,10.1l6.9,3.3l-9.6,0.5
	l7.4,3.8c-4,3.1-5.9,8.2-4.8,13.2c0.4,1.6,1.4,3.3,3,3.4c2,0.1,3-2.2,4.4-3.6c1.8-1.9,4.7-2.3,7.3-1.9s5.1,1.4,7.6,1.9
	c6.6,1.4,13.4-0.2,18.7-4.3l9.2,22.2c-0.3-3,1.9-5.7,4.9-6c3-0.3,5.7,1.9,6,4.9c0.1,1-0.1,2-0.5,2.9c4-6,7.2-12.9,7.3-20.1
	s-3.5-14.8-10-17.9"/>
<path class="st3" d="M212.5,591.5L200,611.1l7.3-25.5c-15.3-16-36.6-27.7-36.6-27.7s-26.2,43-19.1,69.4s25.2,31.5,44.6,26.3
	c19.4-5.2,32.7-18.6,25.6-45C220.3,602.7,216.9,596.9,212.5,591.5z"/>
<path class="st4" d="M196,613.1l0.3,1.3c4,15.2,4.5,27.7,1.8,37.3c0,0.1-0.1,0.3-0.1,0.4l-0.7-0.2l-0.6-0.2
	c3.2-10.5,1.8-23.7-1.7-36.9c-0.1-0.4-0.2-0.9-0.3-1.3c-1.5-5.6-3.4-11.2-5.4-16.5c-0.2-0.4-0.3-0.8-0.5-1.3
	c-2.7-7-5.6-13.7-8.4-19.4c-0.2-0.4-0.4-0.8-0.6-1.2c-4.7-9.7-8.6-16.5-9.5-18c-0.1-0.2-0.2-0.3-0.2-0.3l0.6-0.3l0,0l0.6-0.3
	c0,0,0.2,0.4,0.6,1c1.4,2.4,5,8.8,9.2,17.5c0.2,0.4,0.4,0.8,0.6,1.2c2.2,4.6,4.6,9.9,6.8,15.4c0.6,1.4,1.1,2.8,1.6,4.1
	c0.2,0.4,0.3,0.8,0.5,1.3C192.8,602.4,194.6,607.9,196,613.1z"/>
<path class="st4" d="M181.2,574.6c-0.4,0.2-0.8,0.3-1.3,0.5c-1.2,0.4-2.4,0.8-3.6,1.2c-5.2,1.4-10.6,1.6-15.9,0.6
	c-0.2,0.4-0.4,0.8-0.5,1.3c5.6,1.1,11.3,0.9,16.8-0.6c1.3-0.3,2.6-0.8,3.8-1.2c0.4-0.2,0.9-0.3,1.3-0.5c3.4-1.5,6.6-3.4,9.5-5.9
	c-0.4-0.3-0.7-0.6-1.1-0.8C187.4,571.4,184.4,573.2,181.2,574.6z"/>
<path class="st4" d="M190.2,595.3c-0.4,0.1-0.9,0.3-1.3,0.4c-0.1,0-0.3,0.1-0.4,0.1c-11.4,3-23.5,0.3-32.5-7.3
	c-0.2,0.4-0.3,0.9-0.5,1.4c9.3,7.7,21.7,10.4,33.4,7.3c0.2,0,0.4-0.1,0.5-0.2c0.4-0.1,0.9-0.3,1.3-0.4c6.8-2.2,12.8-6.3,17.3-11.8
	c-0.3-0.3-0.6-0.7-0.9-1C202.7,589.2,196.8,593.2,190.2,595.3z"/>
<path class="st4" d="M196,613.1c-0.4,0.2-0.9,0.3-1.3,0.4c-0.5,0.1-1,0.3-1.4,0.4c-15.5,4.1-31.8-2.5-40.1-16.2
	c-0.2,0.6-0.3,1.2-0.4,1.8c8.8,13.5,25.3,19.8,40.9,15.7c0.5-0.1,1-0.3,1.4-0.4c0.5-0.1,0.9-0.3,1.3-0.4c8.9-3.1,16.3-9.6,20.7-18
	c-0.3-0.4-0.5-0.9-0.8-1.3C212.1,603.5,204.8,609.9,196,613.1z"/>
<path class="st3" d="M699.2,593.5l-12.3,19.3l7.2-25.2c-15.1-15.8-36.1-27.3-36.1-27.3s-25.8,42.4-18.8,68.4s24.9,31,44,25.9
	c19.1-5.1,32.2-18.3,25.2-44.4C706.8,604.6,703.5,598.9,699.2,593.5z"/>
<path class="st4" d="M682.9,614.8l0.3,1.3c3.9,15,4.5,27.3,1.7,36.8c0,0.1-0.1,0.3-0.1,0.4l-0.6-0.2l-0.6-0.2
	c3.1-10.3,1.7-23.4-1.7-36.4c-0.1-0.4-0.2-0.8-0.3-1.3c-1.5-5.5-3.3-11-5.3-16.3c-0.1-0.4-0.3-0.8-0.5-1.2
	c-2.7-6.9-5.6-13.5-8.2-19.1c-0.2-0.4-0.4-0.8-0.6-1.2c-4.6-9.5-8.5-16.3-9.3-17.8c-0.1-0.2-0.2-0.3-0.2-0.3l0.6-0.3l0,0l0.6-0.3
	c0,0,0.2,0.4,0.6,1c1.4,2.3,4.9,8.7,9.1,17.3c0.2,0.4,0.4,0.8,0.6,1.2c2.2,4.6,4.5,9.7,6.7,15.2c0.6,1.4,1.1,2.7,1.6,4.1
	c0.2,0.4,0.3,0.8,0.5,1.2C679.8,604.3,681.5,609.7,682.9,614.8z"/>
<path class="st4" d="M668.3,576.9c-0.4,0.2-0.8,0.3-1.3,0.5c-1.2,0.4-2.3,0.8-3.5,1.1c-5.1,1.4-10.4,1.6-15.6,0.6
	c-0.2,0.4-0.4,0.8-0.5,1.2c5.5,1.1,11.1,0.9,16.5-0.6c1.3-0.3,2.5-0.7,3.8-1.2c0.4-0.2,0.8-0.3,1.2-0.5c3.4-1.4,6.5-3.4,9.3-5.8
	c-0.4-0.3-0.7-0.5-1.1-0.8C674.4,573.7,671.5,575.5,668.3,576.9z"/>
<path class="st4" d="M677.1,597.3c-0.4,0.1-0.9,0.3-1.3,0.4c-0.1,0-0.3,0.1-0.4,0.1c-11.2,3-23.2,0.3-32.1-7.2
	c-0.2,0.4-0.3,0.9-0.5,1.3c9.2,7.5,21.4,10.2,32.9,7.2c0.2,0,0.4-0.1,0.5-0.1c0.4-0.1,0.9-0.3,1.3-0.4c6.7-2.2,12.6-6.2,17.1-11.6
	c-0.3-0.3-0.6-0.6-0.9-1C689.5,591.3,683.7,595.3,677.1,597.3z"/>
<path class="st4" d="M682.9,614.8c-0.4,0.2-0.9,0.3-1.3,0.4c-0.5,0.1-0.9,0.3-1.4,0.4c-15.3,4-31.4-2.5-39.6-16
	c-0.1,0.6-0.3,1.2-0.4,1.8c8.7,13.3,25,19.6,40.3,15.5c0.5-0.1,1-0.3,1.4-0.4c0.4-0.1,0.9-0.3,1.3-0.4c8.8-3.1,16.1-9.4,20.4-17.7
	c-0.3-0.4-0.5-0.9-0.8-1.3C698.8,605.4,691.6,611.7,682.9,614.8z"/>
<path class="st5" d="M444.7,113.3c0-46.2-32.2-83.7-72-83.7s-72,37.5-72,83.7c0,41.9,26.5,76.7,61.1,82.8v7.9c0,3.1,2.5,5.6,5.6,5.6
	H378c3.1,0,5.6-2.5,5.6-5.6v-7.9C418.2,190,444.7,155.2,444.7,113.3z"/>
<path class="st6" d="M360.1,202.8c4.6-4.3,10.8-6.4,17-5.7c6.3,0.7,11.8,4.4,15,9.8c3.2,5.3,3.9,11.7,1.9,17.5
	c-1.9,5.8-5.9,10.6-10,14.9c-4.3,4.5-9,8.7-13.1,13.5c-13.6,16.1-18.5,37.9-13,58.2c3.6,12.7,10.9,24,21.1,32.4c1.3,1.1,2.6,2.1,4,3
	c1.6,1.1,3.1-1.5,1.5-2.6c-11.1-7.8-19.2-19.1-23.2-32c-6.2-20.5-1.2-42.7,13.2-58.6c4.3-4.7,9.1-9,13.4-13.7
	c4.1-4.5,7.9-9.7,9.5-15.7c1.6-6.2,0.8-12.7-2.5-18.2c-3.2-5.6-8.6-9.7-14.9-11.2c-6.3-1.4-12.8-0.2-18.3,3.2
	c-1.3,0.9-2.6,1.8-3.7,2.9C356.6,202,358.7,204.2,360.1,202.8L360.1,202.8z"/>
<path class="st5" d="M167.3,78.2c-22-50.6-75.2-76.3-118.8-57.4s-61,75.4-39,126c20,45.9,65.6,71.3,106.4,61.5l3.8,8.6
	c1.5,3.4,5.4,5,8.8,3.5l11.5-5c3.4-1.5,5-5.4,3.5-8.8l-3.8-8.6C174.7,174.8,187.2,124.2,167.3,78.2z"/>
<path class="st6" d="M117,216.3c2.9-6.7,8.5-11.8,15.4-14.1c6.8-2.3,14.2-1.5,20.3,2.3c6.3,3.7,10.7,10,12,17.2
	c1.5,8.2-1,16.6-3.8,24.3c-3,8-6.7,15.8-8.7,24.2c-5.8,23.8,0.1,48.9,15.9,67.6c9.8,11.4,22.8,19.6,37.2,23.8
	c1.8,0.5,3.6,0.9,5.4,1.3c1.9,0.4,2.7-2.5,0.8-2.9c-15-3.1-28.8-10.8-39.2-22c-11.1-12-17.8-27.4-19-43.8
	c-0.7-8.3,0.1-16.6,2.2-24.6c2.3-8.5,6.1-16.4,9-24.6c2.8-7.9,4.7-16.3,3-24.6c-1.6-7.3-6-13.7-12.4-17.8c-6.1-4-13.6-5.4-20.7-3.9
	c-7.2,1.6-13.6,6-17.7,12.1c-1,1.5-1.9,3.2-2.6,4.9C113.4,217.3,116.3,218.1,117,216.3L117,216.3z"/>
<polygon class="st0" points="782.7,690 798.8,690 806.5,627.6 782.6,627.6 "/>
<path class="st1" d="M778.5,684.7l31.8,0h0c11.2,0,20.3,9.1,20.3,20.3v0.7l-52.1,0L778.5,684.7z"/>
<polygon class="st0" points="686.9,676.2 702.4,681.1 728.5,623.9 705.8,616.7 "/>
<path class="st1" d="M684.6,669.9l30.4,9.6l0,0c10.7,3.4,16.6,14.8,13.2,25.5l-0.2,0.6l-49.7-15.7L684.6,669.9z"/>
<path class="st1" d="M723.4,405.1l-9,25.3L714.1,567l-25.4,93.5l31.2,8.7l34.5-88.2l11.1-77.5l14.6,77.9l-2,92.6h32.8l2.5-142.7
	c0.7-40.1-6.3-79.9-20.7-117.4v0L723.4,405.1z"/>
<polygon class="st2" points="712.7,302.6 765.6,302.6 787.8,324.7 794.4,416.2 714.4,429.1 688.7,341.8 702.7,304.7 "/>
<polygon class="st2" points="693.6,342.7 612,312 609.9,299.3 661.4,255.7 678.5,268.6 647.5,302.6 702.7,304.7 "/>
<circle class="st0" cx="671.3" cy="260.4" r="13.2"/>
<path class="st1" d="M701.8,277l6-26.9c4.4-19.9,24.1-32.5,44-28.1s32.5,24.1,28.1,44c0,0,0,0.1,0,0.1l-6,26.9
	c-0.6,2.7-3.2,4.4-5.9,3.8l-62.4-13.8C702.9,282.3,701.3,279.7,701.8,277z"/>
<ellipse transform="matrix(0.9605 -0.2783 0.2783 0.9605 -43.6219 214.9806)" class="st0" cx="735.4" cy="261.1" rx="27" ry="27"/>
<path class="st1" d="M698.8,250.4c3.5-15.7,19.1-25.6,34.8-22.2l5.4,1.2c15.7,3.5,25.6,19.1,22.2,34.8l-0.1,0.5l-11.4-2.5l-1.5-11.7
	l-3.2,10.7l-5.9-1.3l-0.7-5.9l-1.6,5.4l-38.1-8.5L698.8,250.4z"/>
<path class="st1" d="M726.1,290.6c-0.8-1.7-0.5-3.7,0.7-5.1c8.1-9.6,20.5-27.8,12.7-42.5l-0.6-1.1l30.7,6.8l-10.2,46.1l-29-1.3
	c-0.3,0-0.6-0.1-0.9-0.1C728,293.1,726.7,292.1,726.1,290.6z"/>
<polygon class="st2" points="763.5,303.1 849.8,315.4 854.6,327.3 813.9,381 794.4,372.1 817.3,332.2 762.9,342.2 "/>
<path class="st5" d="M892.7,129.2c0-55.2-38.5-100-86-100s-86,44.8-86,100c0,50.1,31.7,91.6,73,98.9v9.4c0,3.7,3,6.7,6.7,6.7H813
	c3.7,0,6.7-3,6.7-6.7v-9.4C861,220.8,892.7,179.3,892.7,129.2z"/>
<path class="st6" d="M791.4,235.9c5.5-5.2,13.1-7.7,20.6-6.9c7.4,0.9,14,5.1,17.9,11.5c3.9,6.3,4.9,14,2.7,21.1
	c-2.1,6.9-6.8,12.6-11.6,17.8c-5.2,5.5-10.9,10.5-15.8,16.2c-16.4,19-22.4,44.9-16,69.2c4.2,15.4,13.1,29.1,25.4,39.2
	c1.5,1.2,3,2.4,4.6,3.5c1.6,1.1,3.1-1.5,1.5-2.6c-13.2-9.3-23-22.7-27.8-38.1c-7.5-24.5-1.7-51.1,15.4-70.2
	c5.1-5.7,10.8-10.7,16-16.4c4.9-5.4,9.5-11.4,11.5-18.6c2.1-7.3,1.1-15-2.6-21.6c-3.7-6.7-10-11.6-17.5-13.5
	c-7.5-1.7-15.4-0.4-21.9,3.6c-1.6,1-3.1,2.2-4.5,3.5C787.9,235.1,790,237.3,791.4,235.9L791.4,235.9z"/>
<circle class="st0" cx="801.8" cy="383" r="13.2"/>
<path class="st6" d="M664.4,264.1c-0.7,1.1-2.4,0.9-3.3,0.3c-1.3-0.9-0.9-2.8,0-3.9c2.9-3.4,7.6,0.2,8.2,3.6c0.5,3.4-1.1,6.8-4,8.5
	c-3.3,1.9-7.5,1-10.3-1.4c-5.9-4.8-4.3-14.5,2.2-18c4.1-2.2,9.4-1.3,13.5,0.6c4.6,2.1,8.6,5.3,12.8,8c9.3,5.8,19.9,9.5,30.9,10.5
	c1.9,0.2,1.9-2.8,0-3c-6.1-0.6-12-2.1-17.7-4.3c-5.6-2.3-11-5.2-15.9-8.7c-5-3.4-10.2-6.8-16.4-7.3c-5.1-0.6-10.1,1.6-13.2,5.7
	c-2.7,3.7-3.5,8.4-2.2,12.8c1.6,4.6,5.5,8,10.3,8.9c4.6,0.9,9.3-1.3,11.6-5.4c2.3-3.9,2.2-9.2-1.2-12.5c-2-2-5-2.8-7.7-2.1
	c-2.6,0.9-4.4,3.2-4.6,5.9c-0.3,5.1,6.9,7.7,9.7,3.3C668,263.9,665.4,262.4,664.4,264.1L664.4,264.1z"/>
<polygon class="st7" points="64.2,425.3 60.2,430.3 46.2,422 50.2,417 "/>
<polygon class="st7" points="78.8,446.7 82.3,451.9 67.6,459.2 64.1,454 "/>
<polygon class="st7" points="94.1,423.9 101.1,424.2 100.4,438.8 93.4,438.6 "/>
<polygon class="st7" points="229.2,29.3 225.2,34.3 211.2,26 215.2,21 "/>
<polygon class="st7" points="243.8,50.7 247.3,55.9 232.6,63.2 229.1,58 "/>
<polygon class="st7" points="259.1,27.9 266.1,28.2 265.4,42.8 258.4,42.6 "/>
<polygon class="st7" points="618.2,81.3 614.2,86.3 600.2,78 604.2,73 "/>
<polygon class="st7" points="632.8,102.7 636.3,107.9 621.6,115.2 618.1,110 "/>
<polygon class="st7" points="648.1,79.9 655.1,80.2 654.4,94.8 647.4,94.6 "/>
<polygon class="st7" points="499.2,8.3 495.2,13.3 481.2,5 485.2,0 "/>
<polygon class="st7" points="513.8,29.7 517.3,34.9 502.6,42.2 499.1,37 "/>
<polygon class="st7" points="529.1,6.9 536.1,7.2 535.4,21.8 528.4,21.6 "/>
<rect x="621.7" y="381.2" transform="matrix(0.5661 -0.8244 0.8244 0.5661 -49.9473 684.5086)" class="st7" width="7" height="17"/>
<rect x="634.7" y="420.2" transform="matrix(0.866 -0.5 0.5 0.866 -125.6749 378.3685)" class="st7" width="17" height="7"/>
<rect x="658.7" y="395.2" transform="matrix(4.096366e-02 -0.9992 0.9992 4.096366e-02 241.5145 1049.0123)" class="st7" width="17" height="7"/>
<polygon class="st8" points="322.9,643.9 335,642 326.7,545.2 299.7,550.2 "/>
<path class="st1" d="M319.2,640.4l23.9-3.7l0,0c8.4-1.3,16.3,4.5,17.6,12.9l0.1,0.5l-39.1,6L319.2,640.4z"/>
<polygon class="st8" points="195.6,642.7 207.8,643.2 222.7,557.2 195.7,557.2 "/>
<path class="st1" d="M192.6,638.5l24.1,1h0c8.5,0.4,15.1,7.5,14.7,16l0,0.5l-39.5-1.7L192.6,638.5z"/>
<path class="st8" d="M219.7,362.5c-0.6-0.2-1.2-0.3-1.8-0.3l7.6-62.5l25.9-54.9c3.6-7.5,0.3-16.5-7.2-20.1c-6.8-3.2-14.9-0.9-19,5.4
	v0c-6.8,10.3-11.9,21.7-15.2,33.6L199.1,303l8,67.5c-0.9,5.5,2.8,10.6,8.3,11.5c5.5,0.9,10.6-2.8,11.5-8.3
	C227.6,368.7,224.5,363.9,219.7,362.5z"/>
<path class="st1" d="M235.4,305l-32.7-37.4l16.2-38.1c4.5-10.6,16.7-15.5,27.3-11c10.2,4.3,15.2,15.9,11.4,26.3L235.4,305z"/>
<circle class="st8" cx="263.7" cy="171.3" r="29.7"/>
<path class="st1" d="M268.7,135.2h-19.2c-12.6,0-22.8,11.5-22.8,25.6l0.9,34.4c13.6,1.7,26.9,5.3,39.5,10.6l1.8-7.7l3.5,10.1
	c3.1,1.5,6.3,3.2,9.4,5c-3.6-17-5.1-33.9-2.6-47h6.5v-7.1l2.2,7.1h11.8v0C299.7,149.1,285.8,135.2,268.7,135.2
	C268.7,135.2,268.7,135.2,268.7,135.2z"/>
<path class="st1" d="M331.3,550.5l-2.8,0.7l-2.3-43.4l-17-130l-19.5-49.5l9.5-34.5c0,0,11-24-16.5-42.5l-22-37
	c-15.2-9.9-27.7-3.4-34.4,13.5c-5.8,14.7-10.3,33.3-7.6,52.5c6,43,11,48,11,48s-37.5,41.5-29.5,94.5l-4.5,137.2l-4.1-0.2l-0.4,10.9
	l35.6,1.5l0.4-10.9l-3-0.1l12.9-54.4l19-72l33,88l11.1,35.2l-3.7,0.9l2.6,10.6l34.7-8.4L331.3,550.5z"/>
<path class="st8" d="M355.8,304c-0.4,0.4-0.8,0.9-1.1,1.4l-52.5-34.8L264.7,223c-5.1-6.5-14.6-7.7-21.2-2.5
	c-5.9,4.6-7.5,12.9-3.7,19.4l0,0c6.2,10.7,14.1,20.4,23.3,28.6l30.3,27.3l63.9,23c4.5,3.2,10.7,2.2,14-2.3c3.2-4.5,2.2-10.7-2.3-14
	C364.9,299.7,359.2,300.3,355.8,304L355.8,304z"/>
<path class="st1" d="M311.4,264.3l-48.1,12.6l-26.9-31.5c-7.5-8.7-6.4-21.9,2.3-29.3c8.4-7.2,21-6.5,28.6,1.6L311.4,264.3z"/>
<path class="st9" d="M684.4,657.1H37.1c-0.7,0-1.2-0.5-1.2-1.2c0-0.7,0.5-1.2,1.2-1.2c0,0,0,0,0,0h647.3c0.7,0,1.2,0.5,1.2,1.2
	S685.1,657.1,684.4,657.1C684.4,657.1,684.4,657.1,684.4,657.1z"/>
</svg>
